<svg xmlns="http://www.w3.org/2000/svg" viewBox="0 0 195.56 31.71"><defs><style>.cls-1{fill:#ff0043;}.cls-2{fill:#fff;}</style></defs><g id="Calque_2" data-name="Calque 2"><g id="Calque_1-2" data-name="Calque 1"><path class="cls-1" d="M33.93,0V31.71H21.65V19.37H12.28V31.71H0V0H12.28V11.66h9.37V0Z"/><path class="cls-2" d="M62.92,31.71l-2.26-6.25H50l-2.4,6.25h-10L49.93,0h13L75.45,31.71ZM52,18.54H58.5l-3.23-9.2Z"/><path class="cls-2" d="M158.5,31.71h-10l-11-14a51.45,51.45,0,0,1-4.25-6.55,17.67,17.67,0,0,1,1,5.2V31.71h-10V0h11.6l9.32,11.61a43,43,0,0,1,4.21,6.09,37.16,37.16,0,0,1-.93-8.32V0h10Z"/><path class="cls-2" d="M93.28,7.6V31.71H81.65V7.6H73.36V0h28.21V7.6Z"/><path class="cls-2" d="M117.33,0V31.71H105.06V0Z"/><path class="cls-2" d="M195.56,24.13v7.58H165.47V0h30.09V7.32H177.51v4.6H192.1v7H177.51v5.18Z"/></g></g></svg>